HIERARCHY
ROOT root
{
	OFFSET 0.000000 0.000000 0.000000
	CHANNELS 6 Xposition Yposition Zposition Zrotation Yrotation Xrotation
	JOINT lhip
	{
		OFFSET 0.058581 -0.082280 -0.017664
		CHANNELS 3 Zrotation Yrotation Xrotation
		JOINT lknee
		{
			OFFSET 0.043451 -0.386469 0.008037
			CHANNELS 3 Zrotation Yrotation Xrotation
			JOINT lankle
			{
				OFFSET -0.014790 -0.426874 -0.037428
				CHANNELS 3 Zrotation Yrotation Xrotation
				JOINT ltoe
				{
					OFFSET 0.041054 -0.060286 0.122042
					CHANNELS 3 Zrotation Yrotation Xrotation
					End Site
					{
						OFFSET 0.000000 0.000000 0.000000
					}
				}
			}
		}
	}
	JOINT rhip
	{
		OFFSET -0.060310 -0.090513 -0.013543
		CHANNELS 3 Zrotation Yrotation Xrotation
		JOINT rknee
		{
			OFFSET -0.043257 -0.383688 -0.004843
			CHANNELS 3 Zrotation Yrotation Xrotation
			JOINT rankle
			{
				OFFSET 0.019056 -0.420046 -0.034562
				CHANNELS 3 Zrotation Yrotation Xrotation
				JOINT rtoe
				{
					OFFSET -0.034840 -0.062106 0.130323
					CHANNELS 3 Zrotation Yrotation Xrotation
					End Site
					{
						OFFSET 0.000000 0.000000 0.000000
					}
				}
			}
		}
	}
	JOINT lowerback
	{
		OFFSET 0.004439 0.124404 -0.038385
		CHANNELS 3 Zrotation Yrotation Xrotation
		JOINT upperback
		{
			OFFSET 0.004488 0.137956 0.026820
			CHANNELS 3 Zrotation Yrotation Xrotation
			JOINT chest
			{
				OFFSET -0.002265 0.056032 0.002855
				CHANNELS 3 Zrotation Yrotation Xrotation
				JOINT lowerneck
				{
					OFFSET -0.013390 0.211636 -0.033468
					CHANNELS 3 Zrotation Yrotation Xrotation
					JOINT upperneck
					{
						OFFSET 0.010113 0.088937 0.050410
						CHANNELS 3 Zrotation Yrotation Xrotation
						End Site
						{
							OFFSET 0.000000 0.000000 0.000000
						}
					}
				}
				JOINT lclavicle
				{
					OFFSET 0.071702 0.114000 -0.018898
					CHANNELS 3 Zrotation Yrotation Xrotation
					JOINT lshoulder
					{
						OFFSET 0.122921 0.045205 -0.019046
						CHANNELS 3 Zrotation Yrotation Xrotation
						JOINT lelbow
						{
							OFFSET 0.255332 -0.015649 -0.022946
							CHANNELS 3 Zrotation Yrotation Xrotation
							JOINT lwrist
							{
								OFFSET 0.265709 0.012698 -0.007375
								CHANNELS 3 Zrotation Yrotation Xrotation
								End Site
								{
									OFFSET 0.000000 0.000000 0.000000
								}
							}
						}
					}
				}
				JOINT rclavicle
				{
					OFFSET -0.082954 0.112472 -0.023707
					CHANNELS 3 Zrotation Yrotation Xrotation
					JOINT rshoulder
					{
						OFFSET -0.113228 0.046853 -0.008472
						CHANNELS 3 Zrotation Yrotation Xrotation
						JOINT relbow
						{
							OFFSET -0.260127 -0.014369 -0.031269
							CHANNELS 3 Zrotation Yrotation Xrotation
							JOINT rwrist
							{
								OFFSET -0.269108 0.006794 -0.006027
								CHANNELS 3 Zrotation Yrotation Xrotation
								End Site
								{
									OFFSET 0.000000 0.000000 0.000000
								}
							}
						}
					}
				}
			}
		}
	}
}
MOTION
Frames: 15
Frame Time: 0.033333
-0.031484 0.178649 0.998437 -149.250475 2.630698 110.380336 7.021353 -8.710557 -35.896426 1.417666 -3.930425 14.574107 -7.524077 -8.235820 -2.709774 0.000000 -0.000000 0.000000 -3.173487 -7.826151 -19.331142 -2.678995 -21.087857 5.613157 8.244132 -4.984891 -2.871342 0.000000 -0.000000 0.000000 1.113674 7.510126 32.380771 -3.513902 0.337944 -3.004641 2.735520 1.466937 -5.619287 -10.732333 14.257849 -24.469284 -1.532637 17.101509 -24.575026 -12.875148 -13.263579 0.728514 -42.126957 -9.187814 13.702160 169.311683 -42.284207 -149.116488 -11.501471 -40.733991 -30.015785 6.955104 15.628826 1.703458 45.111448 6.012240 12.448355 -167.674979 36.762306 -149.647990 25.876448 45.588763 -33.518997 
-0.033983 0.178007 0.999007 -148.759630 2.331284 110.261215 7.001620 -9.574630 -35.710212 1.584965 -2.826465 14.569713 -7.640334 -9.220512 -2.822590 0.000000 -0.000000 0.000000 -3.626862 -7.614900 -19.014999 -3.010666 -22.492631 5.950154 7.980807 -4.296860 -2.976856 0.000000 -0.000000 0.000000 0.875457 7.600690 31.920468 -2.960969 -0.000188 -2.251772 2.491670 1.335595 -6.166240 -10.704139 15.837331 -25.760165 -2.194545 16.378370 -22.848513 -14.189808 -13.852654 1.522140 -47.831697 -11.831848 14.987040 169.290427 -43.392760 -146.659056 -7.806006 -41.729064 -37.760292 9.892348 16.515700 1.840725 51.724901 10.786815 14.192858 -166.678750 37.546894 -145.563291 25.802186 47.779785 -38.930512 
-0.036660 0.177273 0.998897 -148.292091 1.979709 110.395078 6.833564 -10.282974 -35.893049 1.626483 -2.130741 14.739951 -7.291919 -9.862930 -3.021053 0.000000 -0.000000 0.000000 -4.145199 -7.629102 -18.994138 -3.140082 -23.556863 6.297870 8.012308 -3.809813 -3.253976 0.000000 -0.000000 0.000000 0.545720 7.858387 31.615297 -2.619789 0.124005 -2.318727 2.331391 1.142528 -5.959294 -10.697840 16.520410 -27.232678 -3.230410 15.757236 -22.546852 -15.935609 -11.942783 1.197748 -51.900528 -13.823124 15.851207 169.667287 -45.323467 -146.623333 -5.765332 -42.244669 -43.372687 12.861900 14.782698 1.872890 55.381782 13.241254 15.828009 -165.357832 38.422206 -143.589886 26.934749 48.978057 -40.145326 
-0.039865 0.176696 0.998003 -147.701950 1.836943 110.588191 6.718916 -10.868477 -36.155806 1.653972 -2.005255 14.834407 -7.052507 -10.063434 -3.147666 0.000000 -0.000000 0.000000 -4.353787 -7.786449 -18.978271 -3.182471 -23.666420 6.337079 8.024111 -4.191694 -3.314154 0.000000 -0.000000 0.000000 0.502999 7.966292 31.375993 -2.495441 0.317927 -1.892296 2.331786 1.330128 -6.029525 -11.029965 16.144262 -28.375591 -4.175514 15.564573 -23.453734 -16.820364 -9.459053 0.922406 -52.885120 -13.058052 14.810715 169.586038 -46.673047 -147.140701 -6.817659 -43.134926 -43.439201 13.829610 12.922084 2.053224 54.661546 12.908933 15.245957 -163.932623 37.800247 -142.372896 28.794894 48.652564 -37.515455 
-0.041634 0.177258 0.997260 -147.540265 2.033010 110.665290 6.707443 -10.464081 -36.070566 1.328789 -2.651923 14.579163 -6.883828 -9.806530 -3.037106 0.000000 -0.000000 0.000000 -4.039382 -7.842803 -18.998428 -3.241661 -22.895065 6.215943 7.888691 -5.089991 -3.338210 0.000000 -0.000000 0.000000 0.649460 7.876712 31.795372 -2.773133 0.521776 -2.293459 2.423422 1.451937 -6.130217 -11.379917 15.166000 -28.783091 -3.954359 16.257713 -24.126982 -17.217368 -9.255324 1.085216 -49.945144 -10.744903 13.770757 169.407745 -45.919604 -147.915698 -6.809068 -42.465992 -41.983245 13.466520 13.365128 2.380308 51.970731 10.532608 14.171596 -163.532672 36.456465 -142.614583 29.582111 47.332047 -35.220973 
-0.043766 0.176748 0.996462 -146.743446 2.067204 110.528526 6.565257 -10.774407 -36.151490 1.130461 -3.677119 14.734820 -7.136222 -9.105712 -2.824642 0.000000 -0.000000 0.000000 -4.079111 -7.822961 -18.610104 -3.076438 -22.603072 5.987296 7.830181 -6.358629 -3.361720 0.000000 -0.000000 0.000000 1.156723 7.629118 31.809773 -2.902604 0.343677 -1.625523 2.541414 1.481537 -6.293249 -11.688635 14.453766 -28.225252 -4.294193 16.829303 -25.485727 -16.768143 -10.017494 1.588978 -45.681319 -7.857956 13.038768 168.147513 -44.726124 -147.556982 -7.910387 -42.091354 -39.187163 11.900160 13.787954 2.301461 47.284188 7.826128 12.273404 -163.809013 35.668857 -143.893379 29.287037 46.622868 -34.217998 
-0.044790 0.176631 0.996068 -146.600452 1.976010 110.514368 6.242428 -10.719671 -36.171986 0.964651 -4.566927 14.663134 -7.326369 -8.314028 -2.674033 0.000000 -0.000000 0.000000 -4.057662 -8.400669 -18.710635 -3.088041 -21.684568 6.017563 8.151945 -6.997855 -3.313286 0.000000 -0.000000 0.000000 0.924627 7.732217 31.932213 -2.964479 0.326285 -1.880928 2.725346 1.558510 -5.921611 -12.051567 14.096671 -27.809533 -4.270383 16.850236 -26.081601 -15.491302 -9.495397 1.497870 -41.351542 -6.215117 12.239028 168.291884 -44.237803 -148.738783 -9.484910 -42.919761 -36.981120 10.358713 13.105620 1.831196 42.161165 6.124259 10.684954 -164.842736 35.845764 -146.240759 28.394778 46.203332 -34.052459 
-0.045261 0.176289 0.996056 -146.155739 1.967375 110.457154 6.217041 -10.820760 -36.212810 0.633601 -5.363535 14.599719 -7.481416 -7.515077 -2.494130 0.000000 -0.000000 0.000000 -4.041261 -8.599007 -18.662901 -3.028607 -21.209649 6.052427 8.476357 -7.917469 -3.326565 0.000000 -0.000000 0.000000 0.985336 7.682814 32.031118 -3.022996 0.328451 -2.058053 2.747940 1.530561 -5.650418 -12.093307 13.913157 -27.088557 -4.174288 16.660895 -26.447687 -14.174916 -8.826191 0.987394 -36.835880 -5.136284 11.447243 169.289480 -44.046771 -150.297275 -11.278411 -43.883950 -35.225610 8.833211 12.312534 1.292362 36.722443 4.683958 9.597761 -166.075638 36.138204 -148.485969 26.329186 45.603181 -34.921522 
-0.045924 0.176193 0.995835 -145.932540 1.997660 110.717329 6.101796 -10.664700 -36.647992 0.440643 -6.182604 14.783983 -7.512432 -6.912919 -2.501837 0.000000 -0.000000 0.000000 -3.930338 -8.815849 -19.112362 -3.070398 -20.587185 6.298322 8.741159 -8.636661 -3.403615 0.000000 -0.000000 0.000000 0.914033 7.391631 32.189072 -3.357271 0.175652 -3.551541 2.824453 1.740699 -4.849330 -12.018949 13.711440 -25.663560 -3.968596 17.011686 -27.078700 -12.979291 -8.137949 0.694685 -32.456529 -3.892254 11.175391 171.001303 -43.803181 -153.167584 -13.123396 -44.555102 -33.464139 7.434081 11.778461 1.083684 31.992176 3.293375 9.107687 -167.744935 36.455414 -151.593272 25.157957 45.312313 -35.474188 
-0.046612 0.175697 0.995530 -145.480755 2.138864 110.567435 6.297027 -11.008344 -36.600537 0.169279 -7.011965 14.746704 -7.652355 -5.890535 -2.323467 0.000000 -0.000000 0.000000 -3.817492 -8.643355 -18.966506 -2.971623 -19.660207 6.306984 8.833150 -10.300038 -3.502415 0.000000 -0.000000 0.000000 0.935691 7.707761 31.653985 -3.024337 0.589142 -1.676754 2.907114 1.424350 -5.563124 -12.166353 13.146763 -25.371871 -3.983538 17.145785 -27.358678 -11.688640 -8.631336 0.681985 -28.760387 -3.404005 11.589547 172.422521 -43.590499 -155.902490 -13.477826 -44.603957 -31.820465 5.564619 11.592671 0.525660 27.004975 1.295956 9.478850 -169.406550 36.381465 -154.920617 24.761800 45.749515 -35.429238 
-0.047448 0.176301 0.995522 -145.105440 2.196762 110.469496 6.194341 -11.070962 -36.420895 0.111720 -7.747231 14.620774 -7.539893 -5.373343 -2.186357 0.000000 -0.000000 0.000000 -3.667731 -8.752166 -18.723678 -2.949129 -19.145993 6.164399 8.734862 -11.122225 -3.492940 0.000000 -0.000000 0.000000 0.894874 7.649070 31.762272 -3.159417 0.331012 -1.934351 3.195305 1.420435 -5.259676 -12.477188 12.335782 -24.890298 -3.391062 17.749217 -28.050958 -11.114291 -9.659225 1.317422 -28.013496 -2.144823 12.301627 173.447459 -43.281031 -157.836839 -13.022131 -43.470112 -30.436548 4.380437 12.711679 0.691661 26.375163 -0.491861 10.552338 -171.018509 36.195341 -157.489496 24.732685 45.555660 -35.142764 
-0.048746 0.176457 0.996213 -144.519246 2.170187 110.329193 6.104944 -11.470403 -36.222860 0.297219 -7.784746 14.620451 -7.542137 -5.688719 -2.114053 0.000000 -0.000000 0.000000 -3.703152 -8.850510 -18.274597 -2.972098 -19.794710 6.040301 8.372738 -10.983302 -3.534281 0.000000 -0.000000 0.000000 0.998303 7.497903 31.959576 -3.244899 -0.225663 -2.186399 3.437794 1.300883 -5.398476 -12.476005 11.966962 -24.480121 -2.869151 18.351647 -27.779025 -11.369765 -11.501502 2.732367 -31.237792 -1.548299 13.782691 173.622072 -43.260844 -158.263618 -12.205190 -43.043452 -29.542942 3.892607 14.656421 1.344643 30.016701 -0.950177 11.998036 -172.368885 36.439020 -158.920231 25.132478 45.928241 -34.934893 
-0.050019 0.176920 0.996671 -144.363053 2.081900 110.023392 6.179940 -11.825052 -35.656634 0.554690 -6.462321 14.327792 -7.539471 -7.079790 -2.240412 0.000000 -0.000000 0.000000 -4.034110 -8.558313 -17.818507 -3.170183 -21.201930 6.342897 7.996534 -9.798673 -3.517161 0.000000 -0.000000 0.000000 0.674901 7.619485 31.611476 -3.017255 -0.435625 -0.647404 3.371613 1.058697 -6.621246 -12.109463 12.456198 -25.178548 -2.854232 18.379510 -25.869534 -13.633242 -13.537968 4.022055 -37.136732 -3.335750 15.058262 171.924482 -42.971105 -155.564896 -11.564402 -43.403942 -29.922774 6.091575 16.984038 2.526846 36.404956 2.085211 13.484977 -171.636833 36.564935 -157.024995 27.575746 46.525442 -33.480171 
-0.050674 0.176440 0.997525 -144.412071 1.952631 109.854607 6.332470 -11.945863 -35.184248 0.600655 -4.944293 14.065285 -7.252888 -8.778662 -2.573651 0.000000 -0.000000 0.000000 -4.439082 -8.131046 -17.644725 -3.452002 -22.833353 7.016191 7.519685 -8.237121 -4.066959 0.000000 -0.000000 0.000000 0.136155 7.793608 31.434833 -2.888967 -0.470436 0.228241 3.015720 1.280624 -7.866110 -11.206164 13.142728 -25.698526 -2.570929 17.697786 -22.949849 -17.879826 -15.532132 5.007008 -43.074743 -7.096728 16.159038 169.564619 -42.875494 -150.523075 -7.190249 -42.360853 -36.781490 11.572696 19.386762 4.816872 42.649677 6.579528 14.019942 -168.849831 36.288448 -151.397069 27.628615 47.964105 -36.675900 
-0.050581 0.174457 0.997642 -144.092364 1.910001 109.582226 6.244798 -11.988983 -34.993629 0.723565 -4.232303 14.168104 -7.331533 -10.038292 -2.607320 0.000000 -0.000000 0.000000 -4.451738 -8.222808 -17.605623 -3.993603 -24.181786 7.906047 7.411564 -6.859142 -4.400426 0.000000 -0.000000 0.000000 0.154262 7.855809 32.553962 -2.605433 -0.008457 -0.663438 2.694123 1.103444 -7.477076 -11.658920 14.226078 -27.178258 -3.553357 15.820934 -21.267264 -19.262418 -14.155037 3.668240 -49.999568 -12.491431 16.870298 170.164199 -45.331601 -147.907317 -3.833777 -42.195545 -45.932202 14.681229 17.942618 4.235132 48.154654 11.872154 15.159155 -168.073229 37.764245 -148.138423 22.010964 49.249340 -45.989811 
